<svg xmlns="http://www.w3.org/2000/svg" width="72" height="25"><style><![CDATA[.B{stroke-linecap:round}.C{stroke:#29bfb3}.D{stroke-width:4.7}.E{fill-rule:nonzero}]]></style><g fill="none" fill-rule="evenodd"><g class="C D"><ellipse cx="30.38" cy="12.33" rx="9.88" ry="9.73"/><path d="M40.27 12.33a9.8 9.8 0 0 0-9.88-9.73m-9.88 9.73a9.8 9.8 0 0 0 9.88 9.73" style="mix-blend-mode:multiply" class="B"/></g><path d="M34.68 15.54l6.38 6.3" stroke="#068f7d" class="B D"/><g class="B C D"><path d="M47.74 2.8v19.45"/><path d="M47.74 8.77v13.5" style="mix-blend-mode:multiply"/></g><g fill="#29bfb3"><g class="E"><path d="M61.93 0c5.35 0 8.26 2.83 9.1 5.97.3 1.16-.36 2.35-1.35 2.65-2.04.62-3-1.03-3.1-1.5-.37-1.7-2.04-2.9-4.62-2.9-2.46 0-4.74.93-4.74 2.76 0 1.66 1.65 2.24 5.37 3 5.8 1.14 9.44 2.56 9.44 7.46C72 22.1 68.07 25 61.93 25c-4.04 0-8.4-1.86-9.62-5.94-.32-1.07.3-2.9 2.27-2.9 1.43 0 2.06 1.02 2.27 1.74a4.7 4.7 0 0 0 .21.56c.9 1.6 3 2.36 4.86 2.36 2.67 0 5.44-.93 5.44-3.2 0-1.52-1.26-2.45-5.75-3.3s-9.05-2.18-9.05-7.32c0-4.1 3.68-6.98 9.37-6.98z"/><path d="M54.93 4.22c1 0 2.27.66 2.27 2.78 0 1.66 1.65 2.25 5.37 3 5.8 1.14 9.44 2.56 9.44 7.46C72 22.1 68.07 25 61.93 25c-4.04 0-8.4-1.86-9.62-5.94-.32-1.07.3-2.9 2.27-2.9 1.43 0 2.06 1.02 2.27 1.74a4.7 4.7 0 0 0 .21.56c.9 1.6 3 2.36 4.86 2.36 2.67 0 5.44-.93 5.44-3.2 0-1.52-1.26-2.45-5.75-3.32s-9.05-2.18-9.05-7.32c0-2.7 2.1-2.75 2.36-2.75z" style="mix-blend-mode:multiply"/></g><ellipse style="mix-blend-mode:multiply" cx="68.76" cy="6.5" rx="2.31" ry="2.28"/><ellipse style="mix-blend-mode:multiply" cx="47.73" cy="2.77" rx="2.31" ry="2.28"/><ellipse style="mix-blend-mode:multiply" cx="41.09" cy="21.9" rx="2.31" ry="2.28"/><ellipse style="mix-blend-mode:multiply" cx="47.73" cy="22.31" rx="2.31" ry="2.28"/><ellipse style="mix-blend-mode:multiply" cx="54.55" cy="18.42" rx="2.31" ry="2.28"/><g class="E"><path d="M18.32 22.18c0 1.2-.97 2.16-2.16 2.16H2.52C1.13 24.34 0 23.2 0 21.82V2.52C0 1.13 1.13 0 2.52 0h13.4c1.2 0 2.16.97 2.16 2.16S17.1 4.3 15.9 4.3H5.12c-.23 0-.42.2-.42.42v4.35c0 .23.2.42.42.42h8.83c1.2 0 2.16.97 2.16 2.16s-.97 2.16-2.16 2.16H5.12c-.23 0-.42.2-.42.42v5.37c0 .23.2.42.42.42h11.03c1.2 0 2.16.97 2.16 2.16z"/><path d="M18.32 22.18c0 1.2-.97 2.16-2.16 2.16H2.52C1.13 24.34 0 23.2 0 21.82v-9.78c0-1.4 1.13-2.52 2.52-2.52l11.43-.01c1.2 0 2.16.96 2.16 2.15h0c0 1.2-.97 2.16-2.16 2.16H5.12c-.23 0-.42.2-.42.42v5.37c0 .23.2.42.42.42h11.03c1.2 0 2.16.97 2.16 2.16z" style="mix-blend-mode:multiply"/></g><ellipse style="mix-blend-mode:multiply" cx="16.11" cy="22.19" rx="2.19" ry="2.15"/></g><path d="M6.8 11.7l7.07-.04" stroke-width="4.37" fill="#d8d8d8" style="mix-blend-mode:multiply" class="B C"/></g></svg>