<?xml version="1.0" encoding="UTF-8"?>
<svg width="589px" height="589px" viewBox="0 0 589 589" version="1.1" xmlns="http://www.w3.org/2000/svg" xmlns:xlink="http://www.w3.org/1999/xlink">
    <!-- Generator: Sketch 55.2 (78181) - https://sketchapp.com -->
    <title>LOGO MYANMAR EDUTCATION MINISTERY@2x</title>
    <desc>Created with Sketch.</desc>
    <defs>
        <polygon id="path-1" points="0.000738660077 0.653064241 588.392657 0.653064241 588.392657 589 0.000738660077 589"></polygon>
    </defs>
    <g id="Style-guide" stroke="none" stroke-width="1" fill="none" fill-rule="evenodd">
        <g id="LOGO-MYANMAR-EDUTCATION-MINISTERY" transform="translate(0.000000, -1.000000)">
            <g id="Group-3" transform="translate(0.000000, 0.347000)">
                <mask id="mask-2" fill="white">
                    <use xlink:href="#path-1"></use>
                </mask>
                <g id="Clip-2"></g>
                <path d="M294.4183,589.0002 C131.9853,589.0002 -0.3137,457.1032 0.000738660077,294.8222 C0.3243,127.5232 138.4053,-5.9678 306.7193,0.9072 C460.5423,7.1892 588.1423,133.0782 588.392657,294.8952 C588.6433,457.0812 456.5433,589.0002 294.4183,589.0002" id="Fill-1" fill="#009A00" mask="url(#mask-2)"></path>
            </g>
            <path d="M294.8787,435.6822 L61.5167,435.6822 C56.0687,435.6822 56.0557,435.6732 58.7487,430.9612 C136.6357,294.6772 214.5247,158.3922 292.4347,22.1202 C293.1197,20.9222 293.4647,18.9092 294.8817,18.8704887 C296.6467,18.8252 296.8627,21.0212 297.5967,22.3002 C375.5777,158.3662 453.5277,294.4502 531.4817,430.5332 C531.9067,431.2772 532.3157,432.0342 532.7717,432.7592 C533.9427,434.6242 533.7147,435.6772 531.2387,435.5522 C530.2407,435.5012 529.2377,435.5462 528.2367,435.5462 L354.9307,435.5462 L294.8787,435.5462 L294.8787,435.6822 Z" id="Fill-4" fill="#FEFE00"></path>
            <path d="M10.0623,306.0313 C10.1863,170.8663 90.8273,61.0803 208.9503,23.9373 C232.8053,16.4363 257.2793,12.3183 282.2523,11.1903 C283.5803,11.1303 285.4673,10.3693 286.1113,11.8983 C286.4483,12.6983 285.3703,14.1993 284.7523,15.2823 C258.6073,61.0733 232.4453,106.8553 206.2793,152.6333 C167.5573,220.3793 128.8223,288.1163 90.1093,355.8673 C75.9293,380.6843 61.7983,405.5293 47.6433,430.3603 C47.2443,431.0583 47.1773,432.1913 46.0353,432.0513 C44.4593,431.8583 44.2733,430.3053 43.7053,429.2393 C33.3833,409.8673 25.2343,389.6343 19.6053,368.3993 C13.1943,344.2173 10.0693,319.6143 10.0623,306.0313" id="Fill-6" fill="#FEFE00"></path>
            <path d="M543.5252,431.3228 C529.4062,406.6928 515.6152,382.6498 501.8372,358.5988 C473.7762,309.6138 445.7192,260.6258 417.6682,211.6358 C393.6652,169.7178 369.6732,127.7928 345.6732,85.8738 C332.1102,62.1838 318.5362,38.5008 304.9822,14.8058 C304.4352,13.8498 303.1292,12.9088 303.6482,11.8488 C304.3312,10.4508 305.9452,11.1708 307.1472,11.2328 C369.3702,14.4528 425.4322,34.7288 473.2692,74.6918 C548.9202,137.8908 583.5702,219.4118 577.3742,317.8628 C574.9242,356.7698 563.7462,393.3948 545.5222,427.8568 C545.0022,428.8438 544.4102,429.7918 543.5252,431.3228" id="Fill-8" fill="#FEFE00"></path>
            <path d="M534.9783,447.1548 C478.3723,529.8358 400.8333,576.2558 299.4893,578.9998 C187.2343,582.0398 97.4013,518.0938 53.6463,445.7458 L534.2073,445.7458 C534.4643,446.2158 534.7213,446.6848 534.9783,447.1548" id="Fill-10" fill="#FEFE00"></path>
            <path d="M304.7078,419.3746 C289.6958,419.3746 274.6838,419.4046 259.6708,419.3576 C254.1628,419.3406 248.8858,418.5206 244.3778,414.8486 C238.7998,410.3046 236.8158,404.2476 236.7818,397.3936 C236.7088,382.5246 236.7578,367.6556 236.7578,352.7866 C236.7578,349.8126 237.0018,346.7226 240.4108,345.8116 C243.8458,344.8926 247.3768,344.4896 250.3428,347.5606 C258.4798,355.9876 270.2638,357.9136 279.6428,352.4946 C289.5198,346.7866 294.7198,334.6016 291.7838,323.7516 C289.4088,314.9766 283.2618,309.9356 274.7098,308.1006 C265.3958,306.1026 256.7528,307.6856 249.9538,315.0736 C248.4078,316.7526 247.1518,318.7106 245.0348,319.7716 C241.4258,321.5826 238.4018,320.0316 237.8508,316.0276 C237.3438,312.3466 238.8058,309.3726 241.2768,306.7266 C251.1518,296.1546 267.9308,292.3646 282.0448,297.5716 C295.6998,302.6096 303.4718,314.1526 304.0258,330.2226 C304.4488,342.5036 311.9288,352.2056 322.9888,354.8196 C335.9708,357.8876 349.4008,348.7706 351.9158,335.1836 C354.4438,321.5276 345.4048,309.2656 331.4718,307.7176 C328.4158,307.3776 325.3888,306.7166 322.1698,307.2606 C318.8628,307.8196 316.0198,305.0696 315.7358,301.7466 C315.4388,298.2596 317.3618,296.5136 320.5798,295.7886 C337.5888,291.9566 354.1628,300.2146 361.1888,316.0506 C368.1668,331.7756 362.7298,350.4716 348.2588,360.5206 C334.5908,370.0126 315.3018,368.3426 303.1918,356.7286 C301.3608,354.9736 300.4368,351.2206 298.2308,351.4456 C296.2758,351.6446 294.7118,354.8536 292.8138,356.5556 C280.4648,367.6286 266.4958,369.3366 251.3798,363.3546 C249.0478,362.4326 248.7008,362.9486 248.7088,365.1056 C248.7538,376.5426 248.6428,387.9826 248.7808,399.4186 C248.8348,403.8816 251.4168,406.4646 255.9188,407.1176 C257.6078,407.3636 259.3398,407.3886 261.0518,407.3896 C289.9318,407.4056 318.8128,407.3166 347.6918,407.4936 C351.9618,407.5206 353.7158,406.2526 353.5498,401.9786 C353.4068,398.3146 355.0638,396.0156 359.0948,395.8906 C363.0308,395.7686 364.6378,397.8596 365.3318,401.4676 C367.2668,411.5246 360.9388,419.3456 350.6028,419.3666 C335.3038,419.3986 320.0058,419.3746 304.7078,419.3746" id="Fill-12" fill="#009A00"></path>
            <path d="M148.921676,326.1695 C149.2887,317.0645 153.9377,306.8175 163.0047,298.6385 C164.4637,297.3225 165.9707,295.9985 168.0887,295.6215 C171.0977,295.0865 173.5507,295.7355 174.9637,298.5915 C176.4087,301.5135 175.3527,303.7725 172.8407,305.6295 C164.7387,311.6225 160.2717,319.6355 160.2777,329.7635 C160.2857,342.3685 170.6317,353.1395 182.7427,353.5215 C196.3137,353.9485 206.7277,344.5965 207.6307,331.1145 C208.3177,320.8865 204.5357,312.7145 196.2507,306.6275 C192.2827,303.7115 191.4317,300.7535 193.5717,297.6985 C195.5687,294.8465 198.7057,294.7325 202.6307,297.3675 C215.7507,306.1765 222.2317,324.0735 217.8397,339.3665 C213.5667,354.2435 200.3997,364.6485 185.1127,365.2255 C165.2917,365.9745 148.8987,349.6855 148.921676,326.1695" id="Fill-14" fill="#009A00"></path>
            <path d="M408.1678,295.375481 C423.8448,295.3595 437.0538,305.6275 441.5428,321.3165 C445.6358,335.6175 439.6448,351.3325 426.8258,359.3505 C416.1608,366.0215 404.9698,368.3645 393.0528,362.6045 C389.2148,360.7495 387.8068,357.9815 389.1158,354.8545 C390.4148,351.7525 393.2728,350.8335 397.4548,352.1715 C409.3958,355.9945 418.1088,353.7625 425.6268,344.9545 C433.4088,335.8345 432.6488,320.4255 424.0038,312.0405 C416.7958,305.0495 400.7878,305.1515 392.6408,312.3035 C387.2928,316.9975 383.5818,322.9525 380.2098,329.1065 C378.5148,332.2025 376.5508,334.3845 372.7688,332.6485 C369.6538,331.2195 368.4268,327.2005 370.2968,323.7635 C374.3998,316.2195 378.9118,309.0055 385.6668,303.3545 C392.2598,297.8375 399.7268,295.3815 408.1678,295.375481" id="Fill-16" fill="#009A00"></path>
        </g>
    </g>
</svg>