<svg xmlns="http://www.w3.org/2000/svg" xmlns:xlink="http://www.w3.org/1999/xlink" width="56" height="56"><defs><path id="A" d="M0 .14h52.85v52.628H0z"/><path id="B" d="M0 .14h52.85v52.628H0z"/></defs><g transform="translate(2 1)" fill="none" fill-rule="evenodd"><g transform="translate(0 .1)"><mask id="C" fill="#fff"><use xlink:href="#A"/></mask><path d="M28.923 52.766C35.183 52.6 42.3 49.14 47.6 42.196c3.566-4.662 5.263-9.98 5.247-15.835-.017-6.007-1.907-11.392-5.596-16.117-2.575-3.297-5.8-5.85-9.607-7.63S29.82.052 25.615.147C11.9.458-.015 11.864 0 26.275c.01 9.3 3.988 16.647 11.575 21.98 4.414 3.102 9.428 4.573 17.348 4.512" fill="#fefefe" mask="url(#C)"/><mask id="D" fill="#fff"><use xlink:href="#B"/></mask><g fill="#08ad4b"><path d="M48.9 38.067l.3-.48a25.74 25.74 0 0 0 1.443-3.605c.258-.832.456-1.68.624-2.535.26-1.32.452-2.65.474-3.995l-.117-3.67-.212-1.502-.454-2.154c-.243-.974-.574-1.92-.943-2.85-.338-.85-.714-1.686-1.148-2.5l-1.167-2.028c-.204-.344-.512-.605-.727-.93l-.634-.928c-.784-.97-1.585-1.926-2.523-2.76l-2.307-1.92-2.47-1.655c-.9-.51-1.812-.95-2.75-1.355-1.014-.437-2.05-.825-3.13-1.084-.502-.12-.994-.32-1.502-.375-.68-.076-1.332-.286-2.02-.332l-2.122-.184c-.297-.024-.33.043-.19.318.103.204.226.398.344.594l1.137 1.92 2.2 3.7 1.22 2.088 1.37 2.327 1.776 3.012 1.68 2.78 1.352 2.334 1.19 1.98c.254.368.44.78.667 1.168l3.484 5.933c.29.545.652 1.053.97 1.586l1.43 2.444 1.402 2.364 1.36 2.302M1.04 26.382a28.92 28.92 0 0 0 .434 4.676c.147.863.344 1.716.598 2.55.26.86.548 1.713.91 2.538l.806 1.725c.04.075.117.22.182.09.07-.14.196-.213.264-.34l2.5-4.322 1.615-2.75 1.76-2.954 1.35-2.332.69-1.118 2.36-3.988 1.298-2.273 1.418-2.326 1.537-2.612 1.306-2.2 1.026-1.78 1.553-2.594.807-1.408 2.04-3.433c.155-.26.13-.313-.163-.297l-1.655.125c-.73.048-1.43.262-2.15.353-.618.08-1.207.262-1.808.396-.46.103-.906.27-1.356.418l-1.172.41-2.118.946c-.735.322-1.408.754-2.09 1.163-.5.305-1.012.633-1.473 1.018l-1.397 1.07-1.584 1.405c-.445.41-.84.882-1.24 1.338-.7.797-1.348 1.643-1.95 2.517-.723 1.052-1.337 2.172-1.88 3.33-.524 1.117-.988 2.257-1.332 3.44-.38 1.304-.698 2.622-.847 3.98l-.25 3.24m25.225 25.323c2.145.05 4.14-.238 6.116-.706l2.363-.674 3.003-1.264c1.016-.508 2.018-1.042 2.925-1.716l2.02-1.517 2.408-2.283c.692-.745 1.325-1.54 1.914-2.368.312-.44.653-.86.904-1.34.046-.088.13-.18.075-.278-.053-.09-.168-.047-.258-.047l-1.135.01-38.852.002c-.885 0-1.77.035-2.656-.014-.092-.005-.21-.098-.273.034-.052.11.052.2.104.268l1.274 1.82c.62.874 1.4 1.606 2.048 2.45.234.306.554.536.84.795l1.256 1.144c.5.402 1.048.743 1.56 1.13.6.454 1.256.826 1.903 1.214.88.528 1.8.97 2.732 1.374 1.217.525 2.488.915 3.78 1.233.986.242 1.98.438 2.986.566 1.018.13 2.04.2 2.96.164" mask="url(#D)"/><g stroke-width="2.314"><path d="M11.575 48.254C3.988 42.922.01 35.576 0 26.275-.015 11.864 11.9.458 25.614.147c4.206-.095 8.224.687 12.03 2.466s7.032 4.333 9.607 7.63c3.69 4.725 5.58 10.11 5.596 16.117.016 5.856-1.68 11.174-5.247 15.835C42.3 49.14 35.182 52.6 28.923 52.766c-7.92.06-12.934-1.4-17.348-4.512z" stroke="#3ead41"/><path d="M26.437 38.422l21.05-.002c.212.002.248-.084.18-.277-.12-.342-.36-.614-.53-.926l-1.473-2.482-2.467-4.198-.788-1.363-.904-1.508-.943-1.645-1.44-2.43-1.272-2.13-1.286-2.178-1.098-1.88-1.094-1.815-1.276-2.146L31.5 10.68l-.782-1.33-.703-1.133c-.2-.34-.347-.714-.578-1.03-.336-.46-.63-.944-.92-1.43l-1.973-3.336c-.08-.138-.15-.187-.25-.017l-.754 1.25-1.894 3.194-2.017 3.383-.95 1.632-.934 1.624-2.193 3.652-1.716 2.89-1.3 2.207-1.492 2.566-1.57 2.605-1.068 1.795-.978 1.657-1.478 2.527-1.138 1.88-1.416 2.384c-.094.15-.16.3-.23.47-.087.197.005.28.186.288l.86.012 20.218.001" stroke="#3ead3f"/></g></g></g><path d="M18.543 26.064c.624-.012.808-.034 1.48-.558.76-.592 1.014-1.37.93-2.3-.075-.84-.524-1.474-1.152-2-.193-.162-.635-.13-.772.04-.17.2-.1.514.17.707.907.642 1.002 1.843.493 2.537-.542.74-1.667.95-2.337.148-.242-.3-.476-.617-.48-.992-.006-.67.196-1.274.8-1.7.267-.186.32-.53.145-.748-.158-.197-.503-.197-.75.003-.172.14-.32.3-.46.47-.7.846-.893 1.78-.5 2.816.323.852 1.322 1.663 2.44 1.552m8.1 3.722v.005l3.277-.002c.742-.004 1.2-.754.9-1.444-.105-.242-.327-.267-.536-.25-.185.016-.312.143-.335.35-.046.405-.06.416-.48.416-1.75 0-3.5 0-5.25-.001-.277 0-.556.01-.833-.008-.22-.013-.4-.136-.427-.36-.1-.825-.044-1.656-.06-2.484-.003-.2.056-.26.27-.157.622.3 1.275.278 1.92.084.378-.115.674-.374.92-.684.1-.14.183-.23.375-.04.5.494 1.065.852 1.825.855.707.003 1.318-.194 1.806-.684.358-.36.648-.78.676-1.322.01-.176.092-.243.27-.217.385.056.475.003.664-.325.318-.553.652-1.075 1.272-1.37a1.58 1.58 0 0 1 1.637.228c.596.524.62 1.188.37 1.932-.158.47-1.022.964-1.627.876-.155-.023-.306-.07-.46-.098-.225-.043-.424.04-.524.227-.092.17-.012.355.117.507s.313.194.498.207l.883.023c.902-.052 1.915-.834 2.1-1.83.1-.484.064-.948-.033-1.453s-.407-.742-.695-1.04c-.45-.464-1.034-.6-1.67-.605-.624.003-1.185.173-1.645.6-.296.276-.57.575-.766.934-.075.137-.2.152-.33.145s-.184-.088-.214-.207-.06-.24-.127-.332c-.705-.953-1.542-1.32-2.75-1.088-.2.038-.36.3-.3.503.08.3.198.368.623.3.73-.1 1.33.164 1.637.72.486.88.24 1.757-.642 2.28-.527.314-1.267.2-1.708-.224-.365-.352-.483-.786-.53-1.262-.1-.927-.503-1.64-1.35-2.093-.693-.37-1.882-.385-2.515.035-.267.177-.513.395-.736.625-.12.125-.224.303-.164.504.05.165.132.314.317.353.216.045.402-.028.55-.2.14-.153.25-.36.423-.456.548-.306 1.1-.385 1.708-.064.46.247.886.902.796 1.417-.118.675-.413 1.212-1.12 1.472-.5.184-1.183-.034-1.486-.292-.295-.25-.44-.308-.816-.166-.294.1-.403.342-.398.63L22 28.493c.027.725.616 1.27 1.344 1.272l3.277.001m-.216 8.728H6.197c-.287 0-.574.001-.86-.012-.18-.008-.272-.1-.186-.288l.23-.47 1.416-2.385 1.138-1.88 1.478-2.528.978-1.657 1.068-1.795 1.57-2.605 1.492-2.566 1.3-2.207 1.716-2.9 2.193-3.652.934-1.624.952-1.632L23.633 6.9l1.894-3.194.754-1.25c.1-.17.17-.12.25.017l1.973 3.336.922 1.43c.23.315.378.7.578 1.03l.703 1.133.782 1.33 1.586 2.765 1.276 2.146 1.094 1.814c.392.6.73 1.253 1.098 1.88l1.286 2.178 1.272 2.13 1.44 2.43.943 1.645.904 1.508.787 1.363 2.467 4.197a44.51 44.51 0 0 1 1.473 2.482c.172.312.4.584.53.926.068.192.032.278-.18.277-.277-.003-.554.002-.83.002H26.438m-3.133 13.137a26.41 26.41 0 0 1-2.986-.566c-1.292-.318-2.563-.708-3.78-1.233-.934-.403-1.854-.847-2.733-1.374l-1.902-1.214-1.56-1.13c-.44-.355-.837-.763-1.256-1.144-.286-.26-.605-.5-.84-.795L6.2 41.726l-1.274-1.82c-.025-.037 43.04-.064 42.994.023-.25.48-.592.9-.904 1.34a25 25 0 0 1-1.914 2.368c-.754.8-1.58 1.547-2.408 2.283-.635.564-1.347 1.015-2.02 1.517-.907.674-1.9 1.208-2.925 1.716-.976.487-1.985.887-3.003 1.264-.768.284-1.564.485-2.363.674-1.976.468-3.97.756-6.116.706-.92.046-1.942-.035-2.96-.164zM1.3 23.233c.15-1.357.467-2.675.847-3.98a22.88 22.88 0 0 1 1.332-3.44c.542-1.157 1.156-2.277 1.88-3.33.6-.874 1.248-1.72 1.95-2.517l1.24-1.338 1.584-1.405 1.397-1.07c.46-.385.963-.712 1.473-1.018l2.1-1.163 2.118-.946c.38-.16.78-.28 1.172-.4l1.356-.418 1.808-.396 2.15-.353 1.655-.125C25.634 1.307 3.83 38.038 3.8 37.962c-.302-.56-.55-1.144-.806-1.725-.364-.825-.65-1.68-.9-2.538a20.73 20.73 0 0 1-.597-2.549 31.12 31.12 0 0 1-.36-2.89 25.93 25.93 0 0 1-.074-1.786c-.014-1.088.133-2.162.25-3.24zM27.523 1.32l2.122.184c.688.046 1.34.256 2.02.332.508.057 1 .255 1.502.375 1.08.26 2.114.647 3.13 1.084a26.96 26.96 0 0 1 2.75 1.355c.865.497 1.654 1.093 2.47 1.655.83.572 1.558 1.255 2.307 1.92.938.833 1.74 1.8 2.523 2.76.234.3.427.616.634.928.215.325.523.586.727.93l1.167 2.028c.434.812.8 1.648 1.148 2.5.37.93.7 1.874.943 2.85l.454 2.154c.1.495.148 1 .212 1.502.157 1.22.137 2.445.117 3.67-.022 1.346-.215 2.675-.474 3.995l-.624 2.535a25.74 25.74 0 0 1-1.443 3.605c-.055.113-.126.217-.206.336-.03.045-21.778-36.718-21.48-36.694z" fill="#fdfe02"/><path d="M26.653 29.785c-1.092 0-2.185.003-3.277-.001-.727-.003-1.317-.547-1.344-1.272l-.073-3.232c-.005-.3.104-.52.398-.63.375-.142.52-.085.816.166.303.257.985.476 1.486.292.706-.26 1-.796 1.12-1.47.1-.515-.335-1.17-.796-1.417-.6-.32-1.16-.24-1.708.064-.172.096-.282.303-.423.456a.56.56 0 0 1-.55.189c-.184-.04-.268-.188-.317-.353-.06-.202.043-.38.164-.505.223-.23.47-.448.736-.625.633-.42 1.822-.405 2.515-.035.848.453 1.26 1.166 1.35 2.093.046.476.164.9.53 1.262.44.425 1.182.538 1.7.224.88-.524 1.128-1.402.642-2.28-.307-.556-.905-.82-1.637-.72-.424.058-.543-.001-.623-.3-.05-.193.112-.465.3-.503 1.208-.233 2.045.135 2.75 1.088.068.092.098.217.127.332s.073.2.214.207.254-.007.33-.145c.196-.36.47-.658.766-.934.46-.428 1.02-.598 1.645-.6.635-.003 1.22.14 1.67.605.288.297.598.535.695 1.04s.122.97.033 1.453c-.184.997-1.197 1.778-2.1 1.83a6.83 6.83 0 0 1-.883-.023c-.185-.014-.365-.052-.498-.207s-.2-.336-.117-.507c.1-.188.3-.27.524-.227l.46.1c.605.088 1.47-.406 1.627-.876.25-.744.228-1.408-.368-1.93a1.58 1.58 0 0 0-1.637-.228c-.62.295-.954.818-1.272 1.37-.2.33-.28.38-.664.325-.178-.026-.262.04-.27.217-.027.54-.318.962-.676 1.32-.488.5-1.1.687-1.806.684-.76-.003-1.326-.36-1.825-.855-.192-.2-.264-.1-.375.04-.245.3-.54.57-.92.684-.643.195-1.297.217-1.92-.083-.214-.104-.274-.035-.27.156l.06 2.484c.027.222.207.345.427.358.277.017.555.008.833.008h5.25c.42 0 .435-.01.48-.415.023-.206.15-.333.335-.35.2-.018.43.007.536.25.3.7-.168 1.44-.9 1.444l-3.277.002V29.8zm-8.1-3.72c-1.12.1-2.118-.7-2.44-1.552-.393-1.036-.2-1.97.5-2.816.14-.17.288-.33.46-.47.248-.2.593-.2.75-.003.174.217.122.56-.145.748-.594.415-.796 1.02-.8 1.7.003.374.238.7.48.992.67.802 1.795.6 2.337-.148.5-.694.414-1.895-.493-2.537-.273-.193-.34-.497-.17-.707.138-.17.58-.203.772-.04.628.526 1.076 1.16 1.152 2 .083.918-.172 1.697-.93 2.3-.673.524-.857.546-1.48.558" fill="#08ad4b"/></g></svg>