<svg xmlns="http://www.w3.org/2000/svg" width="589" height="590" fill-rule="nonzero"><path d="M294.4 589.3C132 589.3-.3 457.3-.001 295.1-.048 214.893 32.677 138.148 90.587 82.654A294 294 0 0 1 306.7 1.2c157.55 6.597 281.838 136.313 281.7 294 .3 162.2-131.8 294-294 294" fill="#009a00"/><path d="M295 435.7H61.5c-5.4 0-5.5 0-2.8-4.7L292.4 22c.7-1.2 1-3.2 2.4-3.2 1.8 0 2 2.2 2.7 3.4l235.3 410.4c1.2 2 1 3-1.5 2.8l-236.3.1v.2zM10 306c.2-135 80.8-245 199-282a286 286 0 0 1 73.3-12.7c1.3-.1 3.2-.8 4 .7.3.8-.7 2.3-1.4 3.4l-237 415c-.4.7-.5 1.8-1.6 1.7-1.6-.2-1.8-1.7-2.3-2.8a279 279 0 0 1-24-60.8c-6.4-24.2-9.5-48.8-9.5-62.4l-.5-.1zm533.5 125.3L305 14.8c-.5-1-2-2-1.3-3 .7-1.4 2.3-.7 3.5-.6 62.2 3.2 118.3 23.5 166 63.5 73.52 58.304 112.667 149.76 104.1 243.2-2.4 39-13.6 75.5-32 110l-2 3.5.2-.1zm-8.5 15.9C478.4 530 401 576.2 299.5 579c-99.83 2.416-193.44-48.33-245.9-133.3l481.4 1.5z" fill="#fefe00"/><path d="M304.7 419.4h-45c-5.5 0-10.8-.8-15.3-4.5-5.6-4.5-7.6-10.6-7.6-17.5v-44.6c0-3 .2-6 3.7-7 3.4-1 7-1.3 10 1.7 8 8.4 20 10.4 29.3 5 10-5.7 15-18 12-28.7a21 21 0 0 0-17.1-15.7c-9.3-2-18-.4-24.8 7-1.5 1.7-2.8 3.6-5 4.7-3.6 1.8-6.6.3-7.2-3.7-.5-3.7 1-6.7 3.4-9.3 10-10.6 26.7-14.4 40.8-9.2 13.7 5 21.4 16.6 22 32.7.4 12.3 8 22 19 24.6 13 3 26.4-6 29-19.6a23 23 0 0 0-20.4-27.5c-3-.3-6-1-9.3-.5-3.3.6-6.2-2.2-6.4-5.5-.3-3.5 1.6-5.2 4.8-6 17-3.8 33.6 4.4 40.6 20.3 7 15.7 1.5 34.4-13 44.5-14.028 9.47-32.758 7.887-45-3.8-1.8-1.8-2.8-5.5-5-5.3-2 .2-3.5 3.4-5.4 5-12.3 11-26.3 12.8-41.4 6.8-2.3-1-2.7-.4-2.7 1.8l.1 34.3c.1 4.5 2.6 7 7 7.7l5 .3 86.6.1c4.3 0 6-1.2 6-5.5-.1-3.7 1.5-6 5.5-6 4-.1 5.5 2 6.2 5.6 2 10-4.4 18-14.7 18h-46M149 326.2c.4-9 5-19.4 14-27.5 1.5-1.3 3-2.6 5-3 3-.5 5.5.1 7 3 1.4 3 .4 5.2-2 7a29 29 0 0 0-12.6 24c.08 12.613 9.91 23.012 22.5 23.8 13.6.4 24-9 25-22.4.7-10.2-3-18.4-11.4-24.5-4-3-4.8-6-2.7-9 2-3 5-3 9-.3a39 39 0 0 1 15.2 42c-4.3 15-17.4 25.3-32.7 26-19.8.7-36.2-15.5-36.2-39m259-31c15.7 0 29 10.3 33.4 26 4.073 14.525-1.913 29.997-14.7 38-10.7 6.7-22 9-33.8 3.3-3.8-2-5.2-4.6-4-7.7 1.3-3 4.2-4 8.3-2.7 12 3.8 20.7 1.6 28.2-7.2 7.8-9 7-24.5-1.6-33a26 26 0 0 0-31.4.3c-5.3 4.7-9 10.6-12.4 16.8-1.7 3-3.7 5.3-7.4 3.5-3-1.4-4.3-5.4-2.5-9a65 65 0 0 1 15.4-20.4c6.6-5.5 14-8 22.5-8" fill="#009a00"/></svg>