<svg xmlns="http://www.w3.org/2000/svg" width="56" height="56" fill-rule="evenodd"><path d="M30.92 53.86c-7.92.06-12.93-1.4-17.35-4.5C6 44 2 36.67 2 27.37 1.98 12.96 13.9 1.55 27.6 1.24A26.6 26.6 0 0 1 39.65 3.7c3.8 1.78 7.03 4.33 9.6 7.63 3.7 4.73 5.58 10.1 5.6 16.12.02 5.86-1.68 11.17-5.25 15.84-5.3 6.94-12.42 10.4-18.68 10.57" stroke="#3ead41" stroke-width="2.31" fill="#08ad4b"/><path d="M28.44 39.5H8.22c-.3 0-.57 0-.86-.01-.18-.01-.27-.1-.2-.3l.23-.47a75.1 75.1 0 0 0 1.42-2.38l7.74-13.03L28.3 3.5c.1-.17.17-.12.25.02l1.97 3.34.92 1.43c.23.32.38.7.58 1.03l.7 1.13 4.75 8.05c.4.6.73 1.25 1.1 1.88l9.1 15.44a44.5 44.5 0 0 1 1.47 2.48c.17.3.4.58.53.93.07.2.03.28-.18.28H28.44m-3.14 13.1a26.4 26.4 0 0 1-2.99-.57 23.5 23.5 0 0 1-3.78-1.23l-2.73-1.37-1.9-1.2-1.56-1.13c-.44-.35-.84-.76-1.26-1.14-.3-.26-.6-.5-.84-.8L8.2 42.73 6.93 40.9c-.02-.04 43.04-.06 43 .02-.25.48-.6.9-.9 1.34a23.4 23.4 0 0 1-1.91 2.37c-.75.8-1.58 1.55-2.4 2.28-.63.56-1.35 1.02-2.02 1.52a19.3 19.3 0 0 1-2.93 1.72 29.9 29.9 0 0 1-3 1.26 17.6 17.6 0 0 1-2.36.67c-1.98.47-3.97.76-6.12.7a17.3 17.3 0 0 1-2.96-.16zm-22-28.4a23.3 23.3 0 0 1 .85-3.98c.34-1.18.8-2.32 1.33-3.44.54-1.16 1.16-2.28 1.88-3.33a27.8 27.8 0 0 1 1.95-2.52l1.24-1.34 1.58-1.4 1.4-1.07c.46-.38.96-.7 1.47-1.02.68-.4 1.36-.84 2.1-1.16l2.12-.95c.38-.16.78-.28 1.17-.4l1.36-.42 1.8-.4 2.15-.35 1.66-.12c.3-.02-21.5 36.7-21.55 36.64-.3-.56-.55-1.14-.8-1.72a21.3 21.3 0 0 1-.9-2.54c-.25-.83-.45-1.7-.6-2.55a31.1 31.1 0 0 1-.36-2.89c-.04-.6-.07-1.2-.07-1.8-.01-1.1.13-2.16.25-3.24zm26.22-21.9l2.12.18c.7.05 1.34.26 2.02.33.5.06 1 .26 1.5.38 1.08.26 2.1.65 3.13 1.08a24.2 24.2 0 0 1 2.75 1.36c.87.5 1.65 1.1 2.47 1.66.83.57 1.56 1.26 2.3 1.92A22.6 22.6 0 0 1 48.33 12c.23.3.43.62.63.93.22.33.52.6.73.93l1.17 2.03a24.4 24.4 0 0 1 1.15 2.5 21.6 21.6 0 0 1 .94 2.85l.45 2.15a15.4 15.4 0 0 1 .2 1.5 25.4 25.4 0 0 1 .12 3.67 22.7 22.7 0 0 1-.47 4c-.17.86-.37 1.7-.62 2.54a25.5 25.5 0 0 1-1.44 3.6c-.05.1-.13.22-.2.34-.03.05-21.78-36.72-21.48-36.7z" fill="#fdfe02"/><path d="M28.65 30.8h-3.28c-.73 0-1.32-.55-1.34-1.27l-.07-3.23c-.01-.3.1-.52.4-.63.37-.14.52-.08.82.17.3.26 1 .48 1.5.3.7-.26 1-.8 1.12-1.47.1-.52-.33-1.17-.8-1.42-.6-.32-1.16-.24-1.7.06-.17.1-.28.3-.42.46a.6.6 0 0 1-.55.2c-.18-.04-.27-.2-.32-.35-.06-.2.04-.38.16-.5a4.5 4.5 0 0 1 .74-.63c.63-.42 1.82-.4 2.52-.03.85.45 1.26 1.17 1.35 2.1.05.48.16.9.53 1.26.44.42 1.18.54 1.7.22.88-.52 1.13-1.4.64-2.28-.3-.56-.9-.82-1.64-.72-.42.06-.54 0-.62-.3-.05-.2.1-.46.3-.5a2.5 2.5 0 0 1 2.75 1.09c.07.1.1.22.13.33.03.12.07.2.2.2s.25-.01.33-.14c.2-.36.47-.66.77-.93a2.3 2.3 0 0 1 1.64-.6c.63 0 1.22.14 1.67.6.3.3.6.53.7 1.04s.12.97.03 1.45a2.4 2.4 0 0 1-2.1 1.83c-.3.02-.6 0-.88-.02-.18-.01-.37-.05-.5-.2s-.2-.34-.12-.5c.1-.2.3-.27.52-.23l.46.1c.6.1 1.47-.4 1.63-.88.25-.74.23-1.4-.37-1.93-.4-.36-1.1-.48-1.64-.23-.62.3-.95.82-1.27 1.37-.2.33-.28.38-.66.33-.18-.03-.26.04-.27.22-.03.54-.32.96-.68 1.32-.5.5-1.1.7-1.8.68-.76 0-1.33-.36-1.82-.86-.2-.2-.26-.1-.37.04-.25.3-.54.57-.92.68-.64.2-1.3.22-1.92-.08-.2-.1-.27-.03-.27.16l.06 2.48c.03.22.2.34.43.36l.83.01h5.25c.42 0 .43-.01.48-.42.02-.2.15-.33.34-.35.2-.02.43.01.54.25.3.7-.17 1.44-.9 1.44h-3.28zm-8.1-3.74a2.5 2.5 0 0 1-2.44-1.55c-.4-1.04-.2-1.97.5-2.82a3.3 3.3 0 0 1 .46-.47c.25-.2.6-.2.75 0 .17.22.12.56-.14.75-.6.4-.8 1.02-.8 1.7 0 .37.24.7.48 1 .67.8 1.8.6 2.34-.15.5-.7.4-1.9-.5-2.54-.27-.2-.34-.5-.17-.7.14-.17.58-.2.77-.04.63.53 1.08 1.16 1.15 2 .08.92-.17 1.7-.93 2.3-.67.52-.86.55-1.48.56" fill="#08ad4b"/></svg>